<?xml version="1.0" standalone="no"?>
<!DOCTYPE svg PUBLIC "-//W3C//DTD SVG 20010904//EN"
 "http://www.w3.org/TR/2001/REC-SVG-20010904/DTD/svg10.dtd">
<svg version="1.0" xmlns="http://www.w3.org/2000/svg"
 width="417.000000pt" height="417.000000pt" viewBox="0 0 417.000000 417.000000"
 preserveAspectRatio="xMidYMid meet">
<metadata>
Created by potrace 1.14, written by Peter Selinger 2001-2017
</metadata>
<g transform="translate(0.000000,417.000000) scale(0.100000,-0.100000)"
fill="#000000" stroke="none">
<path d="M3882 4135 c-40 -19 -74 -35 -76 -35 -2 0 -70 -31 -151 -70 -81 -38
-148 -70 -150 -70 -1 0 -63 -29 -136 -64 -74 -35 -217 -102 -319 -149 -193
-88 -287 -133 -479 -223 -62 -30 -115 -54 -116 -54 -2 0 -63 -28 -136 -63 -74
-35 -168 -79 -209 -98 -175 -80 -194 -92 -206 -129 -19 -58 26 -140 78 -140
33 0 126 -50 153 -82 51 -60 69 -108 69 -183 1 -70 -4 -86 -59 -181 -23 -39
-14 -80 22 -97 22 -10 39 -7 117 21 50 18 98 35 106 37 8 2 263 95 565 205
303 111 652 238 777 283 l228 82 0 523 c0 287 -1 522 -2 522 -2 0 -36 -16 -76
-35z"/>
<path d="M210 3254 c0 -7 37 -222 45 -264 3 -14 8 -41 11 -60 3 -19 14 -82 24
-140 11 -58 21 -118 24 -135 7 -47 55 -317 61 -345 3 -14 8 -38 10 -55 3 -16
14 -80 25 -141 11 -61 22 -128 26 -149 3 -21 8 -47 10 -59 6 -32 23 -127 29
-166 12 -75 28 -150 32 -150 3 0 144 80 255 145 9 6 70 40 135 78 65 37 138
79 163 94 53 31 19 11 455 262 193 111 358 211 368 222 23 28 22 83 -3 106
-10 10 -41 30 -68 43 -118 59 -173 213 -120 339 55 132 -5 245 -136 257 -23 2
-63 6 -91 9 -27 2 -81 7 -120 10 -38 3 -90 7 -115 10 -54 6 -143 13 -225 20
-33 2 -80 6 -105 9 -25 3 -81 8 -125 11 -44 4 -93 8 -110 10 -16 2 -69 6 -117
10 -47 3 -94 7 -105 9 -10 2 -63 7 -118 11 -55 4 -103 9 -107 12 -5 2 -8 1 -8
-3z"/>
<path d="M3875 2449 c-27 -5 -61 -11 -75 -14 -14 -2 -50 -8 -80 -14 -30 -6
-71 -13 -90 -16 -19 -3 -109 -19 -200 -35 -91 -16 -176 -31 -190 -34 -14 -2
-77 -13 -140 -25 -63 -11 -131 -23 -150 -26 -19 -3 -57 -10 -85 -15 -27 -5
-66 -12 -85 -15 -19 -3 -71 -12 -115 -20 -44 -8 -96 -17 -115 -20 -109 -18
-159 -48 -186 -112 -19 -44 -18 -83 7 -166 22 -76 39 -103 79 -130 14 -8 250
-97 525 -197 600 -218 920 -335 958 -349 l27 -11 0 605 c0 570 -1 605 -17 604
-10 -1 -40 -5 -68 -10z"/>
<path d="M1643 1969 c-12 -4 -111 -59 -220 -122 -109 -63 -214 -123 -233 -134
-19 -11 -112 -65 -206 -120 -94 -55 -178 -103 -185 -107 -8 -3 -36 -20 -64
-36 -27 -17 -81 -47 -118 -68 l-69 -37 5 -40 c3 -22 20 -119 37 -215 26 -146
63 -361 86 -494 3 -16 6 -32 8 -35 2 -3 7 -26 10 -51 3 -25 8 -56 11 -70 3
-14 7 -41 10 -60 8 -58 14 -83 22 -91 5 -4 40 -10 78 -13 166 -14 253 -20 294
-20 l45 -1 66 115 c37 63 212 367 390 675 178 308 329 574 337 592 25 61 7
149 -40 190 -12 10 -39 40 -61 65 -57 69 -140 101 -203 77z"/>
<path d="M2242 1491 c-58 -22 -121 -67 -150 -109 -16 -22 -311 -532 -392 -677
-12 -22 -46 -80 -75 -130 -29 -49 -64 -110 -77 -135 -14 -25 -48 -84 -76 -133
l-51 -87 42 -1 c23 0 53 -2 67 -4 45 -5 153 -15 230 -21 41 -2 86 -6 100 -9
14 -2 70 -7 124 -10 55 -4 107 -8 115 -10 9 -1 57 -6 106 -10 50 -3 104 -8
120 -10 17 -2 66 -7 110 -10 44 -3 100 -8 125 -10 25 -3 72 -7 105 -10 33 -2
89 -7 125 -10 36 -3 90 -8 120 -10 30 -3 71 -7 90 -9 19 -3 76 -8 125 -11 50
-4 98 -9 108 -11 10 -2 60 -6 110 -9 51 -3 101 -7 112 -9 11 -2 67 -7 125 -11
58 -4 112 -8 120 -10 8 -2 58 -6 110 -10 52 -3 107 -8 123 -11 l27 -4 0 232 0
233 -186 130 c-102 72 -195 137 -207 145 -12 8 -188 131 -392 274 -203 142
-399 279 -435 304 -183 128 -222 154 -262 171 -60 25 -168 26 -236 2z"/>
</g>
</svg>
